{
  "asset": {
    "version": "2.0",
    "generator": "3dpea GLTFExporter"
  },
  "scenes": [
    {
      "name": "AuxScene",
      "nodes": [
        1
      ]
    }
  ],
  "scene": 0,
  "nodes": [
    {
      "matrix": [
        1,
        0,
        0,
        0,
        0,
        -9.765077635393027e-12,
        -1.000000000009765,
        0,
        0,
        1.000000000009765,
        -9.765077635393027e-12,
        0,
        0,
        0,
        0,
        1
      ],
      "name": "mesh_0",
      "mesh": 0
    },
    {
      "name": "Evebot_214",
      "children": [
        0
      ]
    }
  ],
  "bufferViews": [
    {
      "buffer": 0,
      "byteOffset": 0,
      "byteLength": 3312,
      "target": 34962,
      "byteStride": 12
    },
    {
      "buffer": 0,
      "byteOffset": 3312,
      "byteLength": 6576,
      "target": 34963
    }
  ],
  "buffers": [
    {
      "byteLength": 9888,
      "uri": "data:application/octet-stream;base64,"
    }
  ],
  "accessors": [
    {
      "bufferView": 0,
      "componentType": 5126,
      "count": 276,
      "max": [
        53.29999923706055,
        171.29971313476562,
        30.30000114440918
      ],
      "min": [
        0.0605255663394928,
        0,
        2.870425575742152e-21
      ],
      "type": "VEC3"
    },
    {
      "bufferView": 1,
      "componentType": 5125,
      "count": 1644,
      "max": [
        275
      ],
      "min": [
        0
      ],
      "type": "SCALAR"
    }
  ],
  "materials": [
    {
      "pbrMetallicRoughness": {
        "baseColorFactor": [
          0.6307571363387763,
          0.6307571363387763,
          0.6307571363387763,
          1
        ],
        "metallicFactor": 1,
        "roughnessFactor": 0.4
      },
      "name": "Mat_1"
    }
  ],
  "meshes": [
    {
      "primitives": [
        {
          "mode": 4,
          "attributes": {
            "POSITION": 0
          },
          "indices": 1,
          "material": 0
        }
      ]
    }
  ]
}